<svg t="1670302619459" class="icon" viewBox="0 -200 1024 1024" version="1.1" xmlns="http://www.w3.org/2000/svg" p-id="3338" width="20" height="20"><path d="M773.12 315.168a374.24 374.24 0 0 1 57.168 199.408 374.24 374.24 0 0 1-59.12 202.464 15.392 15.392 0 0 1-23.84 2.592l-12.16-12.16a16 16 0 0 1-2.224-19.856l2.976-4.8a326.48 326.48 0 0 0 46.368-168.24c0-60.256-16.256-116.736-44.624-165.264a281.712 281.712 0 0 0-4.736-7.76 16 16 0 0 1 2.224-19.84l11.632-11.632a16 16 0 0 1 24.752 2.624l1.568 2.464z m-81.024 84.64a262.944 262.944 0 0 1 26.192 114.768 262.88 262.88 0 0 1-28.512 119.44 15.136 15.136 0 0 1-24.208 3.84l-12.832-12.832a16 16 0 0 1-3.104-18.272c0.976-2.016 1.792-3.76 2.432-5.216a215.264 215.264 0 0 0 18.224-86.96c0-29.072-5.76-56.8-16.16-82.128a201.184 201.184 0 0 0-4.56-10.032 16 16 0 0 1 3.12-18.24l12.032-12.032a16 16 0 0 1 25.52 3.984c0.704 1.328 1.312 2.56 1.856 3.68zM240 601.392h91.248a16 16 0 0 1 10.416 3.856L528 765.168V261.568l-186.688 159.968a16 16 0 0 1-10.4 3.84H240v176z m-48 32v-240a16 16 0 0 1 16-16h111.072L549.584 179.84A16 16 0 0 1 576 192v642.8a16 16 0 0 1-26.416 12.144L319.392 649.392H208a16 16 0 0 1-16-16z" p-id="3339"></path></svg>